<svg width="25" height="25" viewBox="0 0 25 25" fill="none" xmlns="http://www.w3.org/2000/svg">
<mask id="mask0_1815_371" style="mask-type:alpha" maskUnits="userSpaceOnUse" x="0" y="0" width="25" height="25">
<rect x="0.533936" y="0.5" width="24" height="24" fill="#D9D9D9"/>
</mask>
<g mask="url(#mask0_1815_371)">
<path d="M14.5339 15.5C14.8173 15.5 15.0631 15.3958 15.2714 15.1875C15.4798 14.9792 15.5839 14.7333 15.5839 14.45C15.5839 14.1667 15.4798 13.9208 15.2714 13.7125C15.0631 13.5042 14.8173 13.4 14.5339 13.4C14.2506 13.4 14.0048 13.5042 13.7964 13.7125C13.5881 13.9208 13.4839 14.1667 13.4839 14.45C13.4839 14.7333 13.5881 14.9792 13.7964 15.1875C14.0048 15.3958 14.2506 15.5 14.5339 15.5ZM13.7839 12.3H15.2839C15.2839 11.8167 15.3339 11.4625 15.4339 11.2375C15.5339 11.0125 15.7673 10.7167 16.1339 10.35C16.6339 9.85 16.9673 9.44583 17.1339 9.1375C17.3006 8.82917 17.3839 8.46667 17.3839 8.05C17.3839 7.3 17.1214 6.6875 16.5964 6.2125C16.0714 5.7375 15.3839 5.5 14.5339 5.5C13.8506 5.5 13.2548 5.69167 12.7464 6.075C12.2381 6.45833 11.8839 6.96667 11.6839 7.6L13.0339 8.15C13.1839 7.73333 13.3881 7.42083 13.6464 7.2125C13.9048 7.00417 14.2006 6.9 14.5339 6.9C14.9339 6.9 15.2589 7.0125 15.5089 7.2375C15.7589 7.4625 15.8839 7.76667 15.8839 8.15C15.8839 8.38333 15.8173 8.60417 15.6839 8.8125C15.5506 9.02083 15.3173 9.28333 14.9839 9.6C14.4339 10.0833 14.0964 10.4625 13.9714 10.7375C13.8464 11.0125 13.7839 11.5333 13.7839 12.3ZM8.53394 18.5C7.98394 18.5 7.5131 18.3042 7.12144 17.9125C6.72977 17.5208 6.53394 17.05 6.53394 16.5V4.5C6.53394 3.95 6.72977 3.47917 7.12144 3.0875C7.5131 2.69583 7.98394 2.5 8.53394 2.5H20.5339C21.0839 2.5 21.5548 2.69583 21.9464 3.0875C22.3381 3.47917 22.5339 3.95 22.5339 4.5V16.5C22.5339 17.05 22.3381 17.5208 21.9464 17.9125C21.5548 18.3042 21.0839 18.5 20.5339 18.5H8.53394ZM8.53394 16.5H20.5339V4.5H8.53394V16.5ZM4.53394 22.5C3.98394 22.5 3.5131 22.3042 3.12144 21.9125C2.72977 21.5208 2.53394 21.05 2.53394 20.5V6.5H4.53394V20.5H18.5339V22.5H4.53394Z" fill="#497886"/>
</g>
</svg>
