<svg width="25" height="25" viewBox="0 0 25 25" fill="none" xmlns="http://www.w3.org/2000/svg">
<mask id="mask0_1815_365" style="mask-type:alpha" maskUnits="userSpaceOnUse" x="0" y="0" width="25" height="25">
<rect x="0.533936" y="0.5" width="24" height="24" fill="#D9D9D9"/>
</mask>
<g mask="url(#mask0_1815_365)">
<path d="M12.5339 23.5C9.43394 23.5 6.8256 22.9208 4.70894 21.7625C2.59227 20.6042 1.53394 19.1833 1.53394 17.5C1.53394 16.35 2.06727 15.2958 3.13394 14.3375C4.2006 13.3792 5.66727 12.65 7.53394 12.15V14.2C6.31727 14.5833 5.34644 15.075 4.62144 15.675C3.89644 16.275 3.53394 16.8833 3.53394 17.5C3.53394 18.5667 4.43394 19.5 6.23394 20.3C8.03394 21.1 10.1339 21.5 12.5339 21.5C14.9339 21.5 17.0339 21.1 18.8339 20.3C20.6339 19.5 21.5339 18.5667 21.5339 17.5C21.5339 16.8833 21.1714 16.275 20.4464 15.675C19.7214 15.075 18.7506 14.5833 17.5339 14.2V12.15C19.4006 12.65 20.8673 13.3792 21.9339 14.3375C23.0006 15.2958 23.5339 16.35 23.5339 17.5C23.5339 19.1833 22.4756 20.6042 20.3589 21.7625C18.2423 22.9208 15.6339 23.5 12.5339 23.5ZM9.53394 19.5V8.5H4.53394V6.5H20.5339V8.5H15.5339V19.5H13.5339V14.5H11.5339V19.5H9.53394ZM12.5339 5.5C11.9839 5.5 11.5131 5.30417 11.1214 4.9125C10.7298 4.52083 10.5339 4.05 10.5339 3.5C10.5339 2.95 10.7298 2.47917 11.1214 2.0875C11.5131 1.69583 11.9839 1.5 12.5339 1.5C13.0839 1.5 13.5548 1.69583 13.9464 2.0875C14.3381 2.47917 14.5339 2.95 14.5339 3.5C14.5339 4.05 14.3381 4.52083 13.9464 4.9125C13.5548 5.30417 13.0839 5.5 12.5339 5.5Z" fill="#497886"/>
</g>
</svg>
