<svg width="25" height="25" viewBox="0 0 25 25" fill="none" xmlns="http://www.w3.org/2000/svg">
<mask id="mask0_1806_357" style="mask-type:alpha" maskUnits="userSpaceOnUse" x="0" y="0" width="25" height="25">
<rect x="0.533936" y="0.5" width="24" height="24" fill="#D9D9D9"/>
</mask>
<g mask="url(#mask0_1806_357)">
<path d="M3.53394 15.5C2.98394 15.5 2.5131 15.3042 2.12144 14.9125C1.72977 14.5208 1.53394 14.05 1.53394 13.5V4.5C1.53394 3.95 1.72977 3.47917 2.12144 3.0875C2.5131 2.69583 2.98394 2.5 3.53394 2.5H21.5339C22.0839 2.5 22.5548 2.69583 22.9464 3.0875C23.3381 3.47917 23.5339 3.95 23.5339 4.5V13.5C23.5339 14.05 23.3381 14.5208 22.9464 14.9125C22.5548 15.3042 22.0839 15.5 21.5339 15.5H3.53394ZM3.53394 4.5V13.5H21.5339V4.5H3.53394ZM3.60894 19L3.53394 17.5L21.5089 16.55L21.5839 18.05L3.60894 19ZM3.53394 21.475V19.975H21.5339V21.475H3.53394ZM10.7839 12C12.0173 12 13.2048 11.7833 14.3464 11.35C15.4881 10.9167 16.4839 10.25 17.3339 9.35C17.4339 10.05 17.8006 10.5833 18.4339 10.95C19.0673 11.3167 19.7673 11.5 20.5339 11.5V6.5C19.7673 6.5 19.0673 6.6875 18.4339 7.0625C17.8006 7.4375 17.4339 7.98333 17.3339 8.7C16.4506 7.83333 15.4464 7.16667 14.3214 6.7C13.1964 6.23333 12.0173 6 10.7839 6C9.46727 6 8.2006 6.22917 6.98394 6.6875C5.76727 7.14583 4.78394 7.91667 4.03394 9C4.78394 10.0833 5.76727 10.8542 6.98394 11.3125C8.2006 11.7708 9.46727 12 10.7839 12Z" fill="#497886"/>
</g>
</svg>
