<svg width="128" height="40" viewBox="0 0 128 40" fill="none" xmlns="http://www.w3.org/2000/svg">
  <path d="M20 16.667c-2.761 0-5 2.239-5 5s2.239 5 5 5 5-2.239 5-5-2.239-5-5-5zm0 13.333c-4.602 0-8.333-3.731-8.333-8.333s3.731-8.333 8.333-8.333 8.333 3.731 8.333 8.333-3.731 8.333-8.333 8.333z" fill="#1F1F1F"/>
  <path d="M40 16.667c-2.761 0-5 2.239-5 5s2.239 5 5 5 5-2.239 5-5-2.239-5-5-5zm0 13.333c-4.602 0-8.333-3.731-8.333-8.333s3.731-8.333 8.333-8.333 8.333 3.731 8.333 8.333-3.731 8.333-8.333 8.333z" fill="#1F1F1F"/>
  <path d="M60 13.333h3.333v13.334H60v-1.334c-1 1-2.333 1.667-4 1.667-3.333 0-6-2.667-6-6.667s2.667-6.667 6-6.667c1.667 0 3 .667 4 1.667v-2zm-3.333 10c2 0 3.333-1.333 3.333-3.333s-1.333-3.333-3.333-3.333c-2 0-3.334 1.333-3.334 3.333s1.334 3.333 3.334 3.333zM73.333 10h3.334v16.667h-3.334v-1.334c-1 1-2.333 1.667-4 1.667-3.333 0-6-2.667-6-6.667s2.667-6.667 6-6.667c1.667 0 3 .667 4 1.667V10zm-3.333 13.333c2 0 3.333-1.333 3.333-3.333s-1.333-3.333-3.333-3.333c-2 0-3.333 1.333-3.333 3.333s1.333 3.333 3.333 3.333zM86.667 13.333H90v13.334h-3.333v-1.334c-1 1-2.334 1.667-4 1.667-3.334 0-6-2.667-6-6.667s2.666-6.667 6-6.667c1.666 0 3 .667 4 1.667v-2zm-3.334 10c2 0 3.334-1.333 3.334-3.333s-1.334-3.333-3.334-3.333c-2 0-3.333 1.333-3.333 3.333s1.333 3.333 3.333 3.333zM100 13.333h3.333v13.334H100v-1.334c-1 1-2.333 1.667-4 1.667-3.333 0-6-2.667-6-6.667s2.667-6.667 6-6.667c1.667 0 3 .667 4 1.667v-2z" fill="#1F1F1F"/>
</svg>