<svg width="128" height="40" viewBox="0 0 128 40" fill="none" xmlns="http://www.w3.org/2000/svg">
  <path d="M20 0C8.954 0 0 8.954 0 20s8.954 20 20 20 20-8.954 20-20S31.046 0 20 0zm-7.333 26.667c-1.841 0-3.334-1.493-3.334-3.334V16.667c0-1.841 1.493-3.334 3.334-3.334 1.841 0 3.333 1.493 3.333 3.334v6.666c0 1.841-1.492 3.334-3.333 3.334zm14.666 0c-1.841 0-3.333-1.493-3.333-3.334V16.667c0-1.841 1.492-3.334 3.333-3.334 1.841 0 3.334 1.493 3.334 3.334v6.666c0 1.841-1.493 3.334-3.334 3.334z" fill="#1F1F1F"/>
  <path d="M60 13.333h3.333v13.334H60v-1.334c-1 1-2.333 1.667-4 1.667-3.333 0-6-2.667-6-6.667s2.667-6.667 6-6.667c1.667 0 3 .667 4 1.667v-2zm-3.333 10c2 0 3.333-1.333 3.333-3.333s-1.333-3.333-3.333-3.333c-2 0-3.334 1.333-3.334 3.333s1.334 3.333 3.334 3.333zM73.333 13.333h3.334v13.334h-3.334v-1.334c-1 1-2.333 1.667-4 1.667-3.333 0-6-2.667-6-6.667s2.667-6.667 6-6.667c1.667 0 3 .667 4 1.667v-2zm-3.333 10c2 0 3.333-1.333 3.333-3.333s-1.333-3.333-3.333-3.333c-2 0-3.333 1.333-3.333 3.333s1.333 3.333 3.333 3.333zM86.667 13.333H90v13.334h-3.333v-1.334c-1 1-2.334 1.667-4 1.667-3.334 0-6-2.667-6-6.667s2.666-6.667 6-6.667c1.666 0 3 .667 4 1.667v-2zm-3.334 10c2 0 3.334-1.333 3.334-3.333s-1.334-3.333-3.334-3.333c-2 0-3.333 1.333-3.333 3.333s1.333 3.333 3.333 3.333zM100 13.333h3.333v13.334H100v-1.334c-1 1-2.333 1.667-4 1.667-3.333 0-6-2.667-6-6.667s2.667-6.667 6-6.667c1.667 0 3 .667 4 1.667v-2zm-3.333 10c2 0 3.333-1.333 3.333-3.333s-1.333-3.333-3.333-3.333c-2 0-3.334 1.333-3.334 3.333s1.334 3.333 3.334 3.333zM113.333 13.333h3.334v13.334h-3.334v-1.334c-1 1-2.333 1.667-4 1.667-3.333 0-6-2.667-6-6.667s2.667-6.667 6-6.667c1.667 0 3 .667 4 1.667v-2zm-3.333 10c2 0 3.333-1.333 3.333-3.333s-1.333-3.333-3.333-3.333c-2 0-3.333 1.333-3.333 3.333s1.333 3.333 3.333 3.333z" fill="#1F1F1F"/>
</svg>