<svg width="676" height="233" viewBox="0 0 676 233" fill="none" xmlns="http://www.w3.org/2000/svg">
<path fill-rule="evenodd" clip-rule="evenodd" d="M34.6472 1.56932C21.8472 3.64532 9.33826 13.1614 3.36426 25.3694L0.147217 31.9433V85.4433V138.943L3.45117 145.7C9.62117 158.315 21.8792 167.371 35.6862 169.512C39.8432 170.157 89.3972 170.395 174.647 170.181C298.833 169.869 307.579 169.735 314.032 168.033C348.608 158.918 373.256 132.355 378.606 98.4433C379.17 94.8683 379.635 81.0194 379.639 67.6664L379.647 43.3904L310.897 43.6664L242.147 43.9433L235.424 47.1284C222.262 53.3634 212.514 66.3693 211.018 79.6933L210.372 85.4433H273.946H337.521L336.995 89.1933C334.503 106.963 323.554 120.611 307.919 125.441C301.71 127.359 298.637 127.443 235.042 127.443H168.647V106.305V85.1683L162.897 85.8363C150.9 87.2323 137.137 96.6153 131.266 107.402C129.097 111.387 125.752 122.906 125.664 126.693C125.655 127.105 106.747 127.443 83.6472 127.443H41.6472V63.9433C41.6472 29.0183 41.3092 0.496288 40.8972 0.560288C40.4852 0.624288 37.6722 1.07832 34.6472 1.56932ZM91.4972 45.3584C82.8382 48.1274 73.9612 55.0064 68.9382 62.8374C65.6072 68.0304 62.6472 76.8583 62.6472 81.6003V85.4433H83.6472H104.647V64.4433V43.4433L100.897 43.4973C98.8352 43.5263 94.6042 44.3644 91.4972 45.3584ZM469.647 45.0514C442.411 52.3634 423.763 75.2093 421.984 103.443C420.314 129.949 436.808 155.694 461.647 165.354C470.729 168.886 481.153 170.443 495.719 170.443H506.647V180.443V190.443H464.147H421.647V192.733C421.647 196.872 424.702 206.859 427.351 211.38C431.814 218.997 437.472 224.247 445.487 228.208L453.043 231.943H485.147H517.251L524.87 228.177C530.115 225.585 533.942 222.796 537.149 219.229C546.025 209.358 548.647 201.034 548.647 182.733V170.443L590.897 170.435C615.334 170.431 635.85 169.989 639.557 169.388C657.247 166.517 671.29 152.723 674.554 135.009C675.155 131.746 675.647 119.196 675.647 107.12V85.1643L670.886 85.7284C659.383 87.0914 648.054 93.8884 641.391 103.425C637.477 109.028 633.647 119.475 633.647 124.548V127.443H591.147H548.647V114.401C548.647 98.6264 546.777 88.5233 542.082 78.9393C533.901 62.2363 518.264 49.5534 500.187 44.9584C492.674 43.0484 476.929 43.0964 469.647 45.0514ZM479.49 86.3623C474.651 87.9253 470.636 90.8513 467.886 94.8193C465.692 97.9863 465.103 100.1 464.814 105.84C464.479 112.521 464.657 113.237 467.802 117.886C469.884 120.963 472.811 123.7 475.554 125.136C479.516 127.21 481.31 127.443 493.304 127.443H506.647V118.079C506.647 100.882 503.761 93.1234 495.671 88.5774C491.276 86.1074 483.552 85.0493 479.49 86.3623ZM590.647 211.503V232.562L617.422 232.253L644.198 231.943L651.14 228.523C664.558 221.913 672.734 210.401 675.165 194.693L675.823 190.443H633.235H590.647V211.503Z" fill="#3D9CFB"/>
</svg>
