<svg width="128" height="40" viewBox="0 0 128 40" fill="none" xmlns="http://www.w3.org/2000/svg">
  <path d="M30 10c-5.523 0-10 4.477-10 10s4.477 10 10 10 10-4.477 10-10-4.477-10-10-10zm0 18c-4.411 0-8-3.589-8-8s3.589-8 8-8 8 3.589 8 8-3.589 8-8 8z" fill="#1F1F1F"/>
  <path d="M30 16c-2.206 0-4 1.794-4 4s1.794 4 4 4 4-1.794 4-4-1.794-4-4-4zm0 6c-1.103 0-2-.897-2-2s.897-2 2-2 2 .897 2 2-.897 2-2 2z" fill="#1F1F1F"/>
  <path d="M60 13.333h3.333v13.334H60v-1.334c-1 1-2.333 1.667-4 1.667-3.333 0-6-2.667-6-6.667s2.667-6.667 6-6.667c1.667 0 3 .667 4 1.667v-2zm-3.333 10c2 0 3.333-1.333 3.333-3.333s-1.333-3.333-3.333-3.333c-2 0-3.334 1.333-3.334 3.333s1.334 3.333 3.334 3.333zM73.333 13.333h3.334v13.334h-3.334v-1.334c-1 1-2.333 1.667-4 1.667-3.333 0-6-2.667-6-6.667s2.667-6.667 6-6.667c1.667 0 3 .667 4 1.667v-2zm-3.333 10c2 0 3.333-1.333 3.333-3.333s-1.333-3.333-3.333-3.333c-2 0-3.333 1.333-3.333 3.333s1.333 3.333 3.333 3.333zM86.667 13.333H90v13.334h-3.333v-1.334c-1 1-2.334 1.667-4 1.667-3.334 0-6-2.667-6-6.667s2.666-6.667 6-6.667c1.666 0 3 .667 4 1.667v-2zm-3.334 10c2 0 3.334-1.333 3.334-3.333s-1.334-3.333-3.334-3.333c-2 0-3.333 1.333-3.333 3.333s1.333 3.333 3.333 3.333z" fill="#1F1F1F"/>
</svg>