<svg width="19" height="19" viewBox="0 0 19 19" fill="none" xmlns="http://www.w3.org/2000/svg">
<path d="M0.611328 6.84653V4.72153L5.13633 0.196533H7.26133L0.611328 6.84653ZM0.611328 1.94653V0.196533H2.36133L0.611328 1.94653ZM13.7863 3.62153C13.6197 3.4382 13.4405 3.25903 13.2488 3.08403C13.0572 2.90903 12.8613 2.75487 12.6613 2.62153L15.0863 0.196533H17.2113L13.7863 3.62153ZM3.11133 12.1715L5.03633 10.2465C5.153 10.4299 5.27383 10.5965 5.39883 10.7465C5.52383 10.8965 5.66133 11.0382 5.81133 11.1715C5.34466 11.2882 4.87383 11.434 4.39883 11.609C3.92383 11.784 3.49466 11.9715 3.11133 12.1715ZM15.1113 7.24653V7.19653C15.1113 6.87987 15.0863 6.57153 15.0363 6.27153C14.9863 5.97153 14.9113 5.67987 14.8113 5.39653L18.6113 1.59653V3.74653L15.1113 7.24653ZM8.51133 1.79653L10.1363 0.196533H12.2613L10.6613 1.79653C10.478 1.7632 10.303 1.7382 10.1363 1.72153C9.96966 1.70487 9.79466 1.69653 9.61133 1.69653C9.42799 1.69653 9.24466 1.70487 9.06133 1.72153C8.87799 1.7382 8.69466 1.7632 8.51133 1.79653ZM0.611328 11.8215V9.69653L4.21133 6.09653C4.17799 6.27987 4.15299 6.4632 4.13633 6.64653C4.11966 6.82987 4.11133 7.0132 4.11133 7.19653C4.11133 7.37987 4.11966 7.55487 4.13633 7.72153C4.15299 7.8882 4.17799 8.05487 4.21133 8.22153L0.611328 11.8215ZM18.3363 13.8965C18.203 13.6965 18.0488 13.5049 17.8738 13.3215C17.6988 13.1382 17.5113 12.9715 17.3113 12.8215L18.6113 11.5215V13.6465L18.3363 13.8965ZM15.4363 11.8465C15.3197 11.7965 15.203 11.7507 15.0863 11.709C14.9697 11.6674 14.853 11.6299 14.7363 11.5965C14.5863 11.5465 14.4405 11.4965 14.2988 11.4465C14.1572 11.3965 14.0113 11.3549 13.8613 11.3215L18.6113 6.54653V8.69653L15.4363 11.8465ZM9.61133 11.1965C8.51133 11.1965 7.56966 10.8049 6.78633 10.0215C6.003 9.2382 5.61133 8.29653 5.61133 7.19653C5.61133 6.09653 6.003 5.15487 6.78633 4.37153C7.56966 3.5882 8.51133 3.19653 9.61133 3.19653C10.7113 3.19653 11.653 3.5882 12.4363 4.37153C13.2197 5.15487 13.6113 6.09653 13.6113 7.19653C13.6113 8.29653 13.2197 9.2382 12.4363 10.0215C11.653 10.8049 10.7113 11.1965 9.61133 11.1965ZM9.61133 9.19653C10.1613 9.19653 10.6322 9.0007 11.0238 8.60903C11.4155 8.21737 11.6113 7.74653 11.6113 7.19653C11.6113 6.64653 11.4155 6.1757 11.0238 5.78403C10.6322 5.39237 10.1613 5.19653 9.61133 5.19653C9.06133 5.19653 8.5905 5.39237 8.19883 5.78403C7.80716 6.1757 7.61133 6.64653 7.61133 7.19653C7.61133 7.74653 7.80716 8.21737 8.19883 8.60903C8.5905 9.0007 9.06133 9.19653 9.61133 9.19653ZM1.61133 18.1965V16.4215C1.61133 15.8549 1.75299 15.3299 2.03633 14.8465C2.31966 14.3632 2.71133 13.9965 3.21133 13.7465C4.06133 13.3132 5.02383 12.9465 6.09883 12.6465C7.17383 12.3465 8.34466 12.1965 9.61133 12.1965C10.878 12.1965 12.0488 12.3465 13.1238 12.6465C14.1988 12.9465 15.1613 13.3132 16.0113 13.7465C16.5113 13.9965 16.903 14.3632 17.1863 14.8465C17.4697 15.3299 17.6113 15.8549 17.6113 16.4215V18.1965H1.61133ZM3.63633 16.1965H15.5863C15.553 16.0465 15.4947 15.9174 15.4113 15.809C15.328 15.7007 15.2197 15.6132 15.0863 15.5465C14.4863 15.2465 13.7238 14.9465 12.7988 14.6465C11.8738 14.3465 10.8113 14.1965 9.61133 14.1965C8.41133 14.1965 7.34883 14.3465 6.42383 14.6465C5.49883 14.9465 4.73633 15.2465 4.13633 15.5465C4.00299 15.6132 3.89466 15.7049 3.81133 15.8215C3.72799 15.9382 3.66966 16.0632 3.63633 16.1965Z" fill="#497886"/>
</svg>
