<svg width="19" height="18" viewBox="0 0 19 18" fill="none" xmlns="http://www.w3.org/2000/svg">
<mask id="mask0_1597_85" style="mask-type:alpha" maskUnits="userSpaceOnUse" x="0" y="0" width="19" height="18">
<rect x="0.766235" width="18" height="18" fill="#D9D9D9"/>
</mask>
<g mask="url(#mask0_1597_85)">
<path d="M9.01624 16.5V13.3875L6.57874 15.7875L5.52874 14.7375L9.01624 11.25V9.75H7.51624L4.02874 13.2375L2.97874 12.1875L5.37874 9.75H2.26624V8.25H5.37874L2.97874 5.8125L4.02874 4.7625L7.51624 8.25H9.01624V6.75L5.52874 3.2625L6.57874 2.2125L9.01624 4.6125V1.5H10.5162V4.6125L12.9537 2.2125L14.0037 3.2625L10.5162 6.75V8.25H12.0162L15.5037 4.7625L16.5537 5.8125L14.1537 8.25H17.2662V9.75H14.1537L16.5537 12.1875L15.5037 13.2375L12.0162 9.75H10.5162V11.25L14.0037 14.7375L12.9537 15.7875L10.5162 13.3875V16.5H9.01624Z" fill="#E9631A"/>
</g>
</svg>
